<svg width="11" height="19" viewBox="0 0 11 19" fill="none" xmlns="http://www.w3.org/2000/svg">
<path d="M0.53125 9.82959C0.53125 9.7098 0.553711 9.59749 0.598633 9.49268C0.643555 9.38786 0.714681 9.29053 0.812012 9.20068L9.25732 1.0249C9.42204 0.852702 9.62793 0.766602 9.875 0.766602C10.0397 0.766602 10.1857 0.804036 10.313 0.878906C10.4478 0.953776 10.5526 1.05859 10.6274 1.19336C10.7098 1.32064 10.751 1.47038 10.751 1.64258C10.751 1.87467 10.6686 2.08057 10.5039 2.26025L2.66504 9.82959L10.5039 17.4102C10.6686 17.5824 10.751 17.7882 10.751 18.0278C10.751 18.1925 10.7098 18.3423 10.6274 18.4771C10.5526 18.6118 10.4478 18.7129 10.313 18.7803C10.1857 18.8551 10.0397 18.8926 9.875 18.8926C9.62793 18.8926 9.42204 18.8102 9.25732 18.6455L0.812012 10.4697C0.714681 10.3799 0.643555 10.2826 0.598633 10.1777C0.553711 10.0729 0.53125 9.95687 0.53125 9.82959Z" fill="#007AFF"/>
</svg>
