<svg width="11" height="19" viewBox="0 0 11 19" fill="none" xmlns="http://www.w3.org/2000/svg">
<path d="M10.4575 9.82959C10.4575 9.95687 10.4351 10.0729 10.3901 10.1777C10.3452 10.2826 10.2741 10.3799 10.1768 10.4697L1.73145 18.6455C1.56673 18.8102 1.36084 18.8926 1.11377 18.8926C0.949056 18.8926 0.799316 18.8551 0.664551 18.7803C0.537272 18.7129 0.432454 18.6118 0.350098 18.4771C0.275228 18.3423 0.237793 18.1925 0.237793 18.0278C0.237793 17.7882 0.32015 17.5824 0.484863 17.4102L8.32373 9.82959L0.484863 2.26025C0.32015 2.08057 0.237793 1.87467 0.237793 1.64258C0.237793 1.47038 0.275228 1.32064 0.350098 1.19336C0.432454 1.05859 0.537272 0.953776 0.664551 0.878906C0.799316 0.804036 0.949056 0.766602 1.11377 0.766602C1.36084 0.766602 1.56673 0.852702 1.73145 1.0249L10.1768 9.20068C10.2741 9.29053 10.3452 9.38786 10.3901 9.49268C10.4351 9.59749 10.4575 9.7098 10.4575 9.82959Z" fill="#007AFF"/>
</svg>
