<svg width="24" height="20" viewBox="0 0 24 20" fill="none" xmlns="http://www.w3.org/2000/svg">
<path d="M0.286621 17.9717V3.56299C0.286621 3.47314 0.294108 3.39079 0.309082 3.31592C0.324056 3.24105 0.357747 3.15869 0.410156 3.06885C0.732096 2.52979 1.19629 2.03564 1.80273 1.58643C2.40918 1.12972 3.12044 0.766602 3.93652 0.49707C4.76009 0.227539 5.6473 0.0927734 6.59814 0.0927734C7.7736 0.0927734 8.83301 0.306152 9.77637 0.73291C10.7272 1.15218 11.4684 1.69873 12 2.37256C12.5316 1.69873 13.269 1.15218 14.2124 0.73291C15.1632 0.306152 16.2227 0.0927734 17.3906 0.0927734C18.349 0.0927734 19.2362 0.227539 20.0522 0.49707C20.8683 0.766602 21.5796 1.12972 22.186 1.58643C22.8 2.03564 23.2642 2.52979 23.5786 3.06885C23.631 3.15869 23.6647 3.24105 23.6797 3.31592C23.6947 3.39079 23.7021 3.47314 23.7021 3.56299V17.9717C23.7021 18.361 23.5936 18.638 23.3765 18.8027C23.1668 18.9674 22.9198 19.0498 22.6353 19.0498C22.4631 19.0498 22.2983 19.0086 22.1411 18.9263C21.9914 18.8514 21.8267 18.7541 21.647 18.6343C21.0705 18.215 20.4191 17.8818 19.6929 17.6348C18.9666 17.3952 18.2104 17.2754 17.4243 17.2754C16.6307 17.2829 15.8595 17.4364 15.1108 17.7358C14.3621 18.0353 13.6846 18.4771 13.0781 19.061C12.8685 19.2557 12.6813 19.3905 12.5166 19.4653C12.3519 19.5402 12.1797 19.5776 12 19.5776C11.8278 19.5776 11.6556 19.5402 11.4834 19.4653C11.3112 19.3905 11.124 19.2557 10.9219 19.061C10.3229 18.4771 9.64535 18.0353 8.88916 17.7358C8.13298 17.4364 7.35807 17.2829 6.56445 17.2754C5.78581 17.2754 5.02962 17.3952 4.2959 17.6348C3.56966 17.8818 2.91829 18.215 2.3418 18.6343C2.16211 18.7541 1.99365 18.8514 1.83643 18.9263C1.68669 19.0086 1.52946 19.0498 1.36475 19.0498C1.08024 19.0498 0.829427 18.9674 0.612305 18.8027C0.395182 18.638 0.286621 18.361 0.286621 17.9717ZM1.84766 17.1182C2.40169 16.6989 3.09424 16.362 3.92529 16.1074C4.75635 15.8529 5.6473 15.7256 6.59814 15.7256C7.21208 15.7256 7.80355 15.7967 8.37256 15.939C8.94906 16.0812 9.48063 16.2721 9.96729 16.5117C10.4539 16.7513 10.8732 17.0171 11.2251 17.3091V3.85498C10.8283 3.18115 10.2144 2.64583 9.3833 2.24902C8.55973 1.84473 7.63135 1.64258 6.59814 1.64258C5.60238 1.64258 4.6665 1.84098 3.79053 2.23779C2.92204 2.62712 2.27441 3.13997 1.84766 3.77637V17.1182ZM12.7749 17.3091C13.1268 17.0171 13.5423 16.7513 14.0215 16.5117C14.5081 16.2721 15.036 16.0812 15.605 15.939C16.1815 15.7967 16.7767 15.7256 17.3906 15.7256C18.3564 15.7256 19.2549 15.8529 20.0859 16.1074C20.917 16.362 21.6095 16.6989 22.1636 17.1182V3.77637C21.7293 3.13997 21.0742 2.62712 20.1982 2.23779C19.3223 1.84098 18.3864 1.64258 17.3906 1.64258C16.3574 1.64258 15.4253 1.84473 14.5942 2.24902C13.7707 2.64583 13.1642 3.18115 12.7749 3.85498V17.3091Z" fill="#007AFF"/>
</svg>
