<svg width="16" height="19" viewBox="0 0 16 19" fill="none" xmlns="http://www.w3.org/2000/svg">
<path d="M8.09277 9.11133C8.3125 9.11133 8.47949 9.04102 8.61133 8.90918L12.0303 5.46387C12.1885 5.30566 12.2588 5.12988 12.2588 4.92773C12.2588 4.73438 12.1797 4.54102 12.0303 4.3916L8.61133 0.919922C8.47949 0.779297 8.3125 0.700195 8.09277 0.700195C7.69727 0.700195 7.38965 1.02539 7.38965 1.43848C7.38965 1.62305 7.45996 1.79883 7.58301 1.94824L9.72754 4.04004C9.2793 3.96094 8.82227 3.92578 8.37402 3.92578C4.27832 3.92578 1 7.19531 1 11.291C1 15.3867 4.28711 18.6826 8.38281 18.6826C12.4697 18.6826 15.7568 15.3867 15.7568 11.291C15.7568 10.8604 15.4492 10.5439 15.0098 10.5439C14.5879 10.5439 14.3066 10.8604 14.3066 11.291C14.3066 14.5869 11.6699 17.2324 8.38281 17.2324C5.08691 17.2324 2.4502 14.5869 2.4502 11.291C2.4502 7.98633 5.07812 5.3584 8.37402 5.3584C8.98047 5.3584 9.52539 5.40234 10.0088 5.49902L7.5918 7.89844C7.45996 8.03906 7.38965 8.20605 7.38965 8.39062C7.38965 8.80371 7.69727 9.11133 8.09277 9.11133Z" fill="white" stroke="white" stroke-width="0.2"/>
</svg>
