<svg width="20" height="25" viewBox="0 0 20 25" fill="none" xmlns="http://www.w3.org/2000/svg">
<path d="M6.39502 5.31641C6.18538 5.31641 6.01318 5.25277 5.87842 5.12549C5.75114 4.99821 5.6875 4.83724 5.6875 4.64258C5.6875 4.44792 5.76611 4.27572 5.92334 4.12598L9.43848 0.723145C9.53581 0.625814 9.62565 0.558431 9.70801 0.520996C9.79785 0.483561 9.89518 0.464844 10 0.464844C10.0973 0.464844 10.1872 0.483561 10.2695 0.520996C10.3594 0.558431 10.453 0.625814 10.5503 0.723145L14.0654 4.12598C14.2152 4.27572 14.29 4.44792 14.29 4.64258C14.29 4.83724 14.2227 4.99821 14.0879 5.12549C13.9531 5.25277 13.7847 5.31641 13.5825 5.31641C13.3729 5.31641 13.2007 5.23779 13.0659 5.08057L11.3252 3.25L10 1.83496L8.65234 3.25L6.92285 5.08057C6.7806 5.23779 6.60465 5.31641 6.39502 5.31641ZM10 15.873C9.79036 15.873 9.60693 15.7982 9.44971 15.6484C9.29997 15.4987 9.2251 15.319 9.2251 15.1094V4.15967L9.34863 1.44189C9.34863 1.26969 9.40853 1.11995 9.52832 0.992676C9.6556 0.865397 9.81283 0.801758 10 0.801758C10.1797 0.801758 10.3294 0.865397 10.4492 0.992676C10.5765 1.11995 10.6401 1.26969 10.6401 1.44189L10.7637 4.15967V15.1094C10.7637 15.319 10.6851 15.4987 10.5278 15.6484C10.3781 15.7982 10.2021 15.873 10 15.873ZM5.04736 24.1162C3.63232 24.1162 2.54297 23.7344 1.7793 22.9707C1.02311 22.2145 0.64502 21.1252 0.64502 19.7026V11.5718C0.64502 10.1567 1.02311 9.07113 1.7793 8.31494C2.54297 7.55127 3.63232 7.16943 5.04736 7.16943H7.32715V8.71924H5.03613C4.13021 8.71924 3.43018 8.96631 2.93604 9.46045C2.44938 9.95459 2.20605 10.6584 2.20605 11.5718V19.7139C2.20605 20.6273 2.44938 21.3311 2.93604 21.8252C3.43018 22.3193 4.13021 22.5664 5.03613 22.5664H14.9302C15.8511 22.5664 16.5586 22.3193 17.0527 21.8252C17.5469 21.3311 17.7939 20.6273 17.7939 19.7139V11.5718C17.7939 10.6584 17.5469 9.95459 17.0527 9.46045C16.5586 8.96631 15.8511 8.71924 14.9302 8.71924H12.6616V7.16943H14.9302C16.3527 7.16943 17.4421 7.55127 18.1982 8.31494C18.9619 9.07113 19.3438 10.1567 19.3438 11.5718V19.7026C19.3438 21.1252 18.9619 22.2145 18.1982 22.9707C17.4421 23.7344 16.3527 24.1162 14.9302 24.1162H5.04736Z" fill="#007AFF"/>
</svg>
