<svg width="17" height="20" viewBox="0 0 17 20" fill="none" xmlns="http://www.w3.org/2000/svg">
<path fill-rule="evenodd" clip-rule="evenodd" d="M4.91957 1H12.0804C12.6146 0.99999 13.0604 0.999981 13.4247 1.02974C13.8046 1.06078 14.1612 1.12789 14.4985 1.29973C15.0159 1.56338 15.4366 1.98408 15.7003 2.50153C15.8721 2.83879 15.9392 3.19545 15.9703 3.57533C16 3.93956 16 4.3854 16 4.91955V6.58045C16 7.1146 16 7.56044 15.9703 7.92467C15.9392 8.30456 15.8721 8.66121 15.7003 8.99848C15.4366 9.51592 15.0159 9.93662 14.4985 10.2003C14.1612 10.3721 13.8046 10.4392 13.4247 10.4703C13.0604 10.5 12.6146 10.5 12.0805 10.5H4.91955C4.3854 10.5 3.93956 10.5 3.57533 10.4703C3.19545 10.4392 2.83879 10.3721 2.50153 10.2003C1.98408 9.93662 1.56338 9.51592 1.29973 8.99847C1.12789 8.66121 1.06078 8.30456 1.02974 7.92467C0.999981 7.56044 0.99999 7.11459 1 6.58044V4.91957C0.99999 4.38541 0.999981 3.93956 1.02974 3.57533C1.06078 3.19545 1.12789 2.83879 1.29973 2.50153C1.56338 1.98408 1.98408 1.56338 2.50153 1.29973C2.83879 1.12789 3.19545 1.06078 3.57533 1.02974C3.93956 0.999981 4.38541 0.99999 4.91957 1ZM3.69748 2.52476C3.41036 2.54822 3.27307 2.5901 3.18251 2.63624C2.94731 2.75608 2.75608 2.94731 2.63624 3.18251C2.5901 3.27307 2.54822 3.41036 2.52476 3.69748C2.50058 3.99336 2.5 4.37757 2.5 4.95V6.55C2.5 7.12243 2.50058 7.50664 2.52476 7.80252C2.54822 8.08965 2.5901 8.22693 2.63624 8.31749C2.75608 8.55269 2.94731 8.74392 3.18251 8.86376C3.27307 8.9099 3.41036 8.95178 3.69748 8.97524C3.99336 8.99942 4.37757 9 4.95 9H12.05C12.6224 9 13.0066 8.99942 13.3025 8.97524C13.5896 8.95178 13.7269 8.9099 13.8175 8.86376C14.0527 8.74392 14.2439 8.55269 14.3638 8.31749C14.4099 8.22693 14.4518 8.08965 14.4752 7.80252C14.4994 7.50664 14.5 7.12243 14.5 6.55V4.95C14.5 4.37757 14.4994 3.99336 14.4752 3.69748C14.4518 3.41036 14.4099 3.27307 14.3638 3.18251C14.2439 2.94731 14.0527 2.75608 13.8175 2.63624C13.7269 2.5901 13.5896 2.54822 13.3025 2.52476C13.0066 2.50058 12.6224 2.5 12.05 2.5H4.95C4.37757 2.5 3.99336 2.50058 3.69748 2.52476ZM1 14.25C1 13.8358 1.33579 13.5 1.75 13.5H15.25C15.6642 13.5 16 13.8358 16 14.25C16 14.6642 15.6642 15 15.25 15H1.75C1.33579 15 1 14.6642 1 14.25ZM1 18.25C1 17.8358 1.33579 17.5 1.75 17.5H11.25C11.6642 17.5 12 17.8358 12 18.25C12 18.6642 11.6642 19 11.25 19H1.75C1.33579 19 1 18.6642 1 18.25Z" fill="white" stroke="white" stroke-width="0.2" stroke-linecap="round" stroke-linejoin="round"/>
</svg>
