<svg width="24" height="23" viewBox="0 0 24 23" fill="none" xmlns="http://www.w3.org/2000/svg">
<path d="M4.10498 18.0288C3.01937 18.0288 2.20329 17.7593 1.65674 17.2202C1.11768 16.6812 0.848145 15.88 0.848145 14.8169V4.08057C0.848145 3.00993 1.11768 2.20882 1.65674 1.67725C2.20329 1.13818 3.01937 0.868652 4.10498 0.868652H14.7627C15.8333 0.868652 16.6419 1.13818 17.1885 1.67725C17.735 2.21631 18.0083 3.01742 18.0083 4.08057V6.38281H16.4585V4.17041C16.4585 3.59391 16.305 3.15967 15.998 2.86768C15.6986 2.5682 15.2756 2.41846 14.729 2.41846H4.12744C3.5734 2.41846 3.14665 2.5682 2.84717 2.86768C2.55518 3.15967 2.40918 3.59391 2.40918 4.17041V14.7383C2.40918 15.3148 2.55518 15.749 2.84717 16.041C3.14665 16.333 3.5734 16.479 4.12744 16.479H6.7666V18.0288H4.10498ZM9.24854 22.8354C8.16292 22.8354 7.35059 22.5659 6.81152 22.0269C6.27246 21.4878 6.00293 20.6867 6.00293 19.6235V8.88721C6.00293 7.81657 6.27246 7.01546 6.81152 6.48389C7.35059 5.94482 8.16292 5.67529 9.24854 5.67529H19.9062C20.9844 5.67529 21.793 5.94482 22.332 6.48389C22.8786 7.02295 23.1519 7.82406 23.1519 8.88721V19.6235C23.1519 20.6867 22.8786 21.4878 22.332 22.0269C21.793 22.5659 20.9844 22.8354 19.9062 22.8354H9.24854ZM9.271 21.2856H19.8838C20.4303 21.2856 20.8534 21.1359 21.1528 20.8364C21.4598 20.5444 21.6133 20.1102 21.6133 19.5337V8.96582C21.6133 8.38932 21.4598 7.95508 21.1528 7.66309C20.8534 7.37109 20.4303 7.2251 19.8838 7.2251H9.271C8.71696 7.2251 8.2902 7.37109 7.99072 7.66309C7.69124 7.95508 7.5415 8.38932 7.5415 8.96582V19.5337C7.5415 20.1102 7.69124 20.5444 7.99072 20.8364C8.2902 21.1359 8.71696 21.2856 9.271 21.2856Z" fill="#007AFF"/>
</svg>
